M48
; DRILL file {KiCad 9.0.3} date 2025-07-20T09:20:15-0700
; FORMAT={-:-/ absolute / metric / decimal}
; #@! TF.CreationDate,2025-07-20T09:20:15-07:00
; #@! TF.GenerationSoftware,Kicad,Pcbnew,9.0.3
; #@! TF.FileFunction,Plated,1,2,PTH
FMAT,2
METRIC
; #@! TA.AperFunction,Plated,PTH,ComponentDrill
T1C0.889
; #@! TA.AperFunction,Plated,PTH,ComponentDrill
T2C1.500
%
G90
G05
T1
X140.38Y-48.148
X140.38Y-50.688
X140.38Y-53.228
X140.38Y-55.768
X140.38Y-58.308
X140.38Y-60.848
X140.38Y-63.389
X155.62Y-48.148
X155.62Y-50.688
X155.62Y-53.228
X155.62Y-55.768
X155.62Y-58.308
X155.62Y-60.848
X155.62Y-63.389
T2
X125.11Y-75.96
X131.46Y-73.42
X135.15Y-95.54
X141.5Y-93.0
X144.61Y-75.96
X150.96Y-73.42
X154.61Y-95.46
X160.96Y-92.92
X164.11Y-75.96
X170.46Y-73.42
M30
