%TF.GenerationSoftware,KiCad,Pcbnew,9.0.3*%
%TF.CreationDate,2025-07-20T09:20:19-07:00*%
%TF.ProjectId,genshin_console,67656e73-6869-46e5-9f63-6f6e736f6c65,rev?*%
%TF.SameCoordinates,Original*%
%TF.FileFunction,Soldermask,Top*%
%TF.FilePolarity,Negative*%
%FSLAX46Y46*%
G04 Gerber Fmt 4.6, Leading zero omitted, Abs format (unit mm)*
G04 Created by KiCad (PCBNEW 9.0.3) date 2025-07-20 09:20:19*
%MOMM*%
%LPD*%
G01*
G04 APERTURE LIST*
G04 Aperture macros list*
%AMRoundRect*
0 Rectangle with rounded corners*
0 $1 Rounding radius*
0 $2 $3 $4 $5 $6 $7 $8 $9 X,Y pos of 4 corners*
0 Add a 4 corners polygon primitive as box body*
4,1,4,$2,$3,$4,$5,$6,$7,$8,$9,$2,$3,0*
0 Add four circle primitives for the rounded corners*
1,1,$1+$1,$2,$3*
1,1,$1+$1,$4,$5*
1,1,$1+$1,$6,$7*
1,1,$1+$1,$8,$9*
0 Add four rect primitives between the rounded corners*
20,1,$1+$1,$2,$3,$4,$5,0*
20,1,$1+$1,$4,$5,$6,$7,0*
20,1,$1+$1,$6,$7,$8,$9,0*
20,1,$1+$1,$8,$9,$2,$3,0*%
G04 Aperture macros list end*
%ADD10C,0.200000*%
%ADD11C,1.700000*%
%ADD12C,4.000000*%
%ADD13C,2.200000*%
%ADD14RoundRect,0.152400X1.063600X0.609600X-1.063600X0.609600X-1.063600X-0.609600X1.063600X-0.609600X0*%
%ADD15C,1.524000*%
%ADD16RoundRect,0.152400X-1.063600X-0.609600X1.063600X-0.609600X1.063600X0.609600X-1.063600X0.609600X0*%
G04 APERTURE END LIST*
D10*
G36*
X175558185Y-60098813D02*
G01*
X175574320Y-60115204D01*
X175581632Y-60205181D01*
X175588883Y-60285897D01*
X175608751Y-60324942D01*
X175637564Y-60339637D01*
X175858237Y-60345254D01*
X175972787Y-60342445D01*
X176076913Y-60517014D01*
X176146609Y-60679630D01*
X176186298Y-60832508D01*
X176199078Y-60977965D01*
X176187453Y-61134562D01*
X176153590Y-61277279D01*
X176098120Y-61408453D01*
X176020478Y-61529944D01*
X175918932Y-61643039D01*
X175801834Y-61738961D01*
X175675169Y-61813013D01*
X175537538Y-61866342D01*
X175387044Y-61899086D01*
X175221374Y-61910362D01*
X175045157Y-61898699D01*
X174885613Y-61864898D01*
X174740281Y-61809999D01*
X174607122Y-61734018D01*
X174484616Y-61635956D01*
X174378005Y-61519691D01*
X174296503Y-61394354D01*
X174238252Y-61258579D01*
X174202659Y-61110366D01*
X174190425Y-60947191D01*
X174199385Y-60835050D01*
X174227067Y-60717935D01*
X174275300Y-60594382D01*
X174300648Y-60531572D01*
X174306441Y-60502058D01*
X174292006Y-60463457D01*
X174239518Y-60426465D01*
X174212669Y-60409996D01*
X174206057Y-60395568D01*
X174212252Y-60381504D01*
X174234023Y-60376029D01*
X174346008Y-60384333D01*
X174505498Y-60387142D01*
X174698572Y-60381646D01*
X174796514Y-60376029D01*
X174838978Y-60384552D01*
X174849637Y-60403995D01*
X174841477Y-60423212D01*
X174810345Y-60441421D01*
X174736186Y-60457240D01*
X174574731Y-60492332D01*
X174445333Y-60547046D01*
X174342222Y-60619661D01*
X174285170Y-60689403D01*
X174249912Y-60776346D01*
X174237320Y-60885642D01*
X174249907Y-61000588D01*
X174286011Y-61098354D01*
X174345519Y-61182840D01*
X174431423Y-61256237D01*
X174549467Y-61318747D01*
X174707633Y-61368595D01*
X174915683Y-61402264D01*
X175184860Y-61414794D01*
X175439277Y-61405439D01*
X175640103Y-61380149D01*
X175796269Y-61342585D01*
X175915763Y-61295639D01*
X176005516Y-61241259D01*
X176070501Y-61181117D01*
X176115568Y-61113693D01*
X176142780Y-61037490D01*
X176152184Y-60950000D01*
X176140493Y-60867708D01*
X176108143Y-60806888D01*
X176054796Y-60761997D01*
X175974517Y-60731948D01*
X175857016Y-60720411D01*
X175658185Y-60727297D01*
X175608621Y-60738607D01*
X175590057Y-60765844D01*
X175581632Y-60832397D01*
X175581632Y-60902372D01*
X175573685Y-60950374D01*
X175557208Y-60961235D01*
X175540284Y-60951767D01*
X175532784Y-60913607D01*
X175534738Y-60667166D01*
X175534738Y-60488014D01*
X175534738Y-60318632D01*
X175534738Y-60168789D01*
X175534738Y-60132397D01*
X175541309Y-60106251D01*
X175558185Y-60098813D01*
G37*
G36*
X175882749Y-58961161D02*
G01*
X175981946Y-59019016D01*
X176079086Y-59105764D01*
X176145674Y-59201297D01*
X176185445Y-59307539D01*
X176199078Y-59427878D01*
X176187140Y-59566592D01*
X176152780Y-59688353D01*
X176096861Y-59796288D01*
X176018461Y-59892672D01*
X175922696Y-59971691D01*
X175815330Y-60028011D01*
X175694069Y-60062609D01*
X175555743Y-60074633D01*
X175420092Y-60063068D01*
X175299735Y-60029639D01*
X175191852Y-59975031D01*
X175094368Y-59898290D01*
X175013156Y-59804178D01*
X174956050Y-59700981D01*
X174921403Y-59586742D01*
X174909476Y-59458653D01*
X174910395Y-59447418D01*
X174940739Y-59447418D01*
X174952005Y-59501233D01*
X174986586Y-59547362D01*
X175051612Y-59588087D01*
X175160567Y-59621740D01*
X175331528Y-59643422D01*
X175331528Y-59396981D01*
X175331528Y-59299040D01*
X175128640Y-59307176D01*
X175026346Y-59329815D01*
X174977593Y-59358875D01*
X174950199Y-59397132D01*
X174940739Y-59447418D01*
X174910395Y-59447418D01*
X174919052Y-59341549D01*
X174946334Y-59240794D01*
X174990198Y-59153471D01*
X175058295Y-59071068D01*
X175142761Y-59010925D01*
X175246653Y-58971510D01*
X175370607Y-58954658D01*
X175378422Y-59472575D01*
X175384040Y-59648918D01*
X175554033Y-59657344D01*
X175721093Y-59646687D01*
X175848748Y-59618066D01*
X175945085Y-59575275D01*
X176016629Y-59520202D01*
X176061588Y-59461939D01*
X176088307Y-59396460D01*
X176097473Y-59321388D01*
X176090266Y-59258197D01*
X176068254Y-59195664D01*
X176029818Y-59132466D01*
X175952645Y-59052536D01*
X175855062Y-58993859D01*
X175810172Y-58970005D01*
X175801573Y-58957466D01*
X175805263Y-58949432D01*
X175818548Y-58946231D01*
X175882749Y-58961161D01*
G37*
G36*
X176145345Y-57387595D02*
G01*
X176160018Y-57399412D01*
X176167815Y-57457571D01*
X176167815Y-57530478D01*
X176167815Y-57726360D01*
X176167815Y-57815997D01*
X176167815Y-58056821D01*
X176160606Y-58087605D01*
X176142780Y-58096022D01*
X176127180Y-58088763D01*
X176120921Y-58062438D01*
X176120921Y-58039968D01*
X176114770Y-57975686D01*
X176102725Y-57954605D01*
X176073700Y-57946521D01*
X175977794Y-57942027D01*
X175436308Y-57942027D01*
X175228759Y-57948775D01*
X175122579Y-57963882D01*
X175077271Y-57981228D01*
X175050452Y-58007645D01*
X175033201Y-58046262D01*
X175026713Y-58101639D01*
X175040425Y-58181841D01*
X175079958Y-58244521D01*
X175139772Y-58286281D01*
X175214535Y-58300453D01*
X176064134Y-58297644D01*
X176093244Y-58288059D01*
X176107609Y-58273831D01*
X176114601Y-58248837D01*
X176120188Y-58182850D01*
X176124785Y-58165468D01*
X176136919Y-58160380D01*
X176150007Y-58165047D01*
X176156580Y-58180041D01*
X176159389Y-58319993D01*
X176162198Y-58518806D01*
X176167815Y-58832414D01*
X176162030Y-58859018D01*
X176148276Y-58865997D01*
X176134137Y-58852558D01*
X176126050Y-58780635D01*
X176115482Y-58707154D01*
X176092588Y-58681228D01*
X176053510Y-58672801D01*
X175412494Y-58672801D01*
X175131004Y-58678419D01*
X175109164Y-58689251D01*
X175094969Y-58712313D01*
X175089239Y-58754012D01*
X175089239Y-58818370D01*
X175089239Y-58849145D01*
X175082431Y-58885210D01*
X175067379Y-58893963D01*
X175051071Y-58886679D01*
X175042344Y-58860380D01*
X175020872Y-58653322D01*
X174978868Y-58488890D01*
X174919856Y-58359316D01*
X174909476Y-58328419D01*
X174918110Y-58312923D01*
X174952829Y-58306071D01*
X175107191Y-58308757D01*
X175018770Y-58227111D01*
X174958094Y-58137806D01*
X174921872Y-58039095D01*
X174909476Y-57927983D01*
X174921782Y-57810215D01*
X174955019Y-57723185D01*
X175006649Y-57659326D01*
X175078370Y-57614375D01*
X175151670Y-57589863D01*
X175236029Y-57576639D01*
X175596409Y-57569556D01*
X176004539Y-57569556D01*
X176082793Y-57564670D01*
X176107365Y-57555635D01*
X176117457Y-57533276D01*
X176122752Y-57464654D01*
X176130760Y-57400214D01*
X176145345Y-57387595D01*
G37*
G36*
X175772142Y-56435903D02*
G01*
X175892229Y-56449417D01*
X175991781Y-56487841D01*
X176075369Y-56550697D01*
X176139084Y-56633505D01*
X176177742Y-56730989D01*
X176191263Y-56847452D01*
X176181448Y-56940187D01*
X176147787Y-57060188D01*
X176118727Y-57153186D01*
X176112372Y-57191835D01*
X176122852Y-57237056D01*
X176151817Y-57261933D01*
X176185302Y-57279238D01*
X176191263Y-57286967D01*
X176186593Y-57299391D01*
X176171601Y-57303820D01*
X176118356Y-57298203D01*
X175933342Y-57289898D01*
X175905376Y-57289898D01*
X175843705Y-57292707D01*
X175795956Y-57292707D01*
X175771052Y-57288252D01*
X175765181Y-57278663D01*
X175772782Y-57265783D01*
X175806092Y-57253506D01*
X175897038Y-57226525D01*
X175976835Y-57179509D01*
X176047526Y-57110746D01*
X176101847Y-57028142D01*
X176133681Y-56941095D01*
X176144368Y-56847452D01*
X176137650Y-56788184D01*
X176118533Y-56738986D01*
X176087215Y-56697609D01*
X176045980Y-56666133D01*
X175997022Y-56646948D01*
X175938105Y-56640212D01*
X175871242Y-56653498D01*
X175815495Y-56693457D01*
X175781232Y-56750329D01*
X175723415Y-56903384D01*
X175669067Y-57040456D01*
X175612612Y-57139036D01*
X175554888Y-57207222D01*
X175483971Y-57258711D01*
X175400973Y-57290053D01*
X175302463Y-57301011D01*
X175197441Y-57288314D01*
X175105635Y-57251289D01*
X175023782Y-57189026D01*
X174960109Y-57108478D01*
X174922393Y-57018117D01*
X174909476Y-56914619D01*
X174917880Y-56842795D01*
X174952585Y-56701884D01*
X174958813Y-56668300D01*
X174951127Y-56631896D01*
X174927776Y-56601602D01*
X174884197Y-56575854D01*
X174870397Y-56561810D01*
X174877360Y-56548050D01*
X174903859Y-56542271D01*
X174956981Y-56545080D01*
X174996060Y-56547889D01*
X175230533Y-56533845D01*
X175244455Y-56533845D01*
X175261721Y-56538456D01*
X175266803Y-56550697D01*
X175261653Y-56562171D01*
X175241646Y-56573046D01*
X175131980Y-56615825D01*
X175053621Y-56669712D01*
X175000060Y-56734112D01*
X174967704Y-56810746D01*
X174956371Y-56903384D01*
X174969483Y-56989368D01*
X175006685Y-57056036D01*
X175043635Y-57089695D01*
X175085845Y-57109464D01*
X175135157Y-57116242D01*
X175200911Y-57103315D01*
X175249706Y-57065928D01*
X175289209Y-57002205D01*
X175344717Y-56869923D01*
X175412359Y-56700737D01*
X175471732Y-56591246D01*
X175523503Y-56525540D01*
X175588315Y-56477107D01*
X175669607Y-56446796D01*
X175772142Y-56435903D01*
G37*
G36*
X176150963Y-54907554D02*
G01*
X176163032Y-54913046D01*
X176167815Y-54932711D01*
X176167815Y-54988764D01*
X176167815Y-55086828D01*
X176167815Y-55156803D01*
X176160000Y-55453681D01*
X176160000Y-55498499D01*
X176167815Y-55565666D01*
X176163180Y-55594220D01*
X176146810Y-55602058D01*
X176132889Y-55598251D01*
X176128736Y-55588014D01*
X176128736Y-55523656D01*
X176120338Y-55472704D01*
X176094909Y-55453558D01*
X175813419Y-55447941D01*
X175393932Y-55447941D01*
X175157743Y-55456887D01*
X175084232Y-55473098D01*
X175044647Y-55503582D01*
X175020155Y-55548485D01*
X175011081Y-55613171D01*
X175022099Y-55680404D01*
X175054215Y-55735358D01*
X175110122Y-55781210D01*
X175172182Y-55800152D01*
X175316507Y-55809176D01*
X175760540Y-55809176D01*
X175986831Y-55806367D01*
X176020781Y-55806367D01*
X176088681Y-55809176D01*
X176108373Y-55801810D01*
X176123737Y-55770377D01*
X176131057Y-55691573D01*
X176135864Y-55671922D01*
X176148032Y-55666416D01*
X176161841Y-55673801D01*
X176167815Y-55702808D01*
X176167815Y-55725157D01*
X176160000Y-55792445D01*
X176160000Y-55915666D01*
X176162564Y-56072470D01*
X176167815Y-56237578D01*
X176167815Y-56321598D01*
X176162223Y-56355908D01*
X176150718Y-56363607D01*
X176139483Y-56357990D01*
X176136552Y-56332833D01*
X176133595Y-56236798D01*
X176128248Y-56206926D01*
X176112133Y-56192552D01*
X176064134Y-56181646D01*
X175730010Y-56178838D01*
X174708098Y-56178838D01*
X174436927Y-56183468D01*
X174361395Y-56191416D01*
X174338875Y-56206297D01*
X174322520Y-56241433D01*
X174315478Y-56310362D01*
X174308070Y-56378987D01*
X174295327Y-56391573D01*
X174281870Y-56377432D01*
X174268583Y-56296318D01*
X174242457Y-56085116D01*
X174194089Y-55890387D01*
X174182609Y-55837142D01*
X174203134Y-55823900D01*
X174339535Y-55814794D01*
X174395589Y-55814794D01*
X174544089Y-55814794D01*
X174667309Y-55817602D01*
X175112808Y-55817602D01*
X175008988Y-55732404D01*
X174952463Y-55659455D01*
X174921382Y-55574198D01*
X174909476Y-55450750D01*
X174919816Y-55341393D01*
X174948189Y-55256385D01*
X174992520Y-55190346D01*
X175053442Y-55139781D01*
X175134180Y-55103558D01*
X175218502Y-55085963D01*
X175370118Y-55078401D01*
X176024567Y-55078401D01*
X176089040Y-55070837D01*
X176114448Y-55054588D01*
X176125692Y-55021646D01*
X176131301Y-54935519D01*
X176136800Y-54913762D01*
X176150963Y-54907554D01*
G37*
G36*
X174367135Y-54289009D02*
G01*
X174440176Y-54302373D01*
X174501713Y-54342254D01*
X174543831Y-54401173D01*
X174557766Y-54470969D01*
X174544316Y-54543425D01*
X174504521Y-54602616D01*
X174444849Y-54642198D01*
X174369944Y-54655739D01*
X174297860Y-54642218D01*
X174240983Y-54602616D01*
X174203508Y-54542869D01*
X174190425Y-54465352D01*
X174203255Y-54395607D01*
X174240983Y-54339445D01*
X174297254Y-54301813D01*
X174367135Y-54289009D01*
G37*
G36*
X176140582Y-54087386D02*
G01*
X176154724Y-54093153D01*
X176160000Y-54112543D01*
X176160000Y-54485013D01*
X176160000Y-54753803D01*
X176160000Y-54795812D01*
X176160000Y-54820969D01*
X176154820Y-54847945D01*
X176143269Y-54854553D01*
X176135310Y-54845287D01*
X176128736Y-54790195D01*
X176120098Y-54705260D01*
X176107732Y-54678210D01*
X176079828Y-54667142D01*
X175996845Y-54661357D01*
X175191088Y-54661357D01*
X175095393Y-54667632D01*
X175063471Y-54679553D01*
X175049465Y-54707880D01*
X175042344Y-54790195D01*
X175039291Y-54858827D01*
X175017309Y-54868597D01*
X175002134Y-54860203D01*
X174995450Y-54826587D01*
X174983773Y-54622168D01*
X174954335Y-54448119D01*
X174909476Y-54300244D01*
X175092903Y-54286200D01*
X175445833Y-54283391D01*
X175968269Y-54283391D01*
X176069917Y-54276057D01*
X176101625Y-54262386D01*
X176114188Y-54228500D01*
X176121043Y-54118161D01*
X176126679Y-54093980D01*
X176140582Y-54087386D01*
G37*
G36*
X176145345Y-52561357D02*
G01*
X176160018Y-52573173D01*
X176167815Y-52631332D01*
X176167815Y-52704239D01*
X176167815Y-52900122D01*
X176167815Y-52989759D01*
X176167815Y-53230582D01*
X176160606Y-53261366D01*
X176142780Y-53269783D01*
X176127180Y-53262524D01*
X176120921Y-53236200D01*
X176120921Y-53213729D01*
X176114770Y-53149447D01*
X176102725Y-53128367D01*
X176073700Y-53120282D01*
X175977794Y-53115788D01*
X175436308Y-53115788D01*
X175228759Y-53122537D01*
X175122579Y-53137644D01*
X175077271Y-53154989D01*
X175050452Y-53181406D01*
X175033201Y-53220023D01*
X175026713Y-53275401D01*
X175040425Y-53355602D01*
X175079958Y-53418283D01*
X175139772Y-53460043D01*
X175214535Y-53474214D01*
X176064134Y-53471406D01*
X176093244Y-53461820D01*
X176107609Y-53447592D01*
X176114601Y-53422598D01*
X176120188Y-53356612D01*
X176124785Y-53339229D01*
X176136919Y-53334141D01*
X176150007Y-53338809D01*
X176156580Y-53353803D01*
X176159389Y-53493754D01*
X176162198Y-53692568D01*
X176167815Y-54006175D01*
X176162030Y-54032779D01*
X176148276Y-54039759D01*
X176134137Y-54026320D01*
X176126050Y-53954396D01*
X176115482Y-53880915D01*
X176092588Y-53854989D01*
X176053510Y-53846563D01*
X175412494Y-53846563D01*
X175131004Y-53852180D01*
X175109164Y-53863012D01*
X175094969Y-53886074D01*
X175089239Y-53927773D01*
X175089239Y-53992131D01*
X175089239Y-54022906D01*
X175082431Y-54058971D01*
X175067379Y-54067725D01*
X175051071Y-54060441D01*
X175042344Y-54034141D01*
X175020872Y-53827084D01*
X174978868Y-53662651D01*
X174919856Y-53533077D01*
X174909476Y-53502180D01*
X174918110Y-53486684D01*
X174952829Y-53479832D01*
X175107191Y-53482519D01*
X175018770Y-53400872D01*
X174958094Y-53311567D01*
X174921872Y-53212856D01*
X174909476Y-53101744D01*
X174921782Y-52983977D01*
X174955019Y-52896947D01*
X175006649Y-52833088D01*
X175078370Y-52788136D01*
X175151670Y-52763625D01*
X175236029Y-52750401D01*
X175596409Y-52743318D01*
X176004539Y-52743318D01*
X176082793Y-52738432D01*
X176107365Y-52729396D01*
X176117457Y-52707037D01*
X176122752Y-52638415D01*
X176130760Y-52573976D01*
X176145345Y-52561357D01*
G37*
G36*
X176136552Y-51229501D02*
G01*
X176153265Y-51237338D01*
X176160000Y-51265893D01*
X176157923Y-51302285D01*
X176151573Y-51590736D01*
X176157923Y-51960397D01*
X176160000Y-52080809D01*
X176152614Y-52113999D01*
X176134842Y-52122819D01*
X176123747Y-52119098D01*
X176117990Y-52107431D01*
X176112372Y-51999598D01*
X176087840Y-51925233D01*
X176060593Y-51898848D01*
X176007063Y-51889807D01*
X175835034Y-51884804D01*
X174487791Y-51884804D01*
X174384110Y-51884804D01*
X174336482Y-51887613D01*
X174301502Y-51899612D01*
X174277212Y-51939496D01*
X174266507Y-52027564D01*
X174259295Y-52093773D01*
X174246845Y-52105966D01*
X174230619Y-52102724D01*
X174224497Y-52094853D01*
X174221688Y-52021946D01*
X174221688Y-51921196D01*
X174221688Y-51699912D01*
X174221688Y-51557152D01*
X174221688Y-51429780D01*
X174221688Y-51313520D01*
X174221688Y-51285554D01*
X174227896Y-51256689D01*
X174242571Y-51249162D01*
X174255516Y-51252467D01*
X174262110Y-51261741D01*
X174268583Y-51347103D01*
X174282774Y-51423274D01*
X174304975Y-51453471D01*
X174358098Y-51461898D01*
X175939570Y-51461898D01*
X176046685Y-51452838D01*
X176082330Y-51435275D01*
X176098174Y-51392701D01*
X176113105Y-51254658D01*
X176120825Y-51235381D01*
X176136552Y-51229501D01*
G37*
G36*
X176148154Y-48956943D02*
G01*
X176164778Y-48965669D01*
X176167815Y-48998953D01*
X176167815Y-49049389D01*
X176167815Y-49130600D01*
X176167815Y-49326605D01*
X176167815Y-49483408D01*
X176167815Y-49525296D01*
X176167815Y-49586967D01*
X176167815Y-49623360D01*
X176162383Y-49655237D01*
X176150963Y-49662561D01*
X176141780Y-49652916D01*
X176134110Y-49598080D01*
X176125515Y-49548161D01*
X176108446Y-49524386D01*
X176083551Y-49516870D01*
X175456702Y-49516870D01*
X175194842Y-49523753D01*
X175108168Y-49536531D01*
X175064197Y-49563212D01*
X175037006Y-49607483D01*
X175026713Y-49676482D01*
X175036746Y-49740734D01*
X175065974Y-49793913D01*
X175116472Y-49838904D01*
X175154896Y-49858448D01*
X175197683Y-49866870D01*
X175486500Y-49872487D01*
X176019193Y-49872487D01*
X176094230Y-49867099D01*
X176117379Y-49857100D01*
X176126468Y-49832366D01*
X176131423Y-49752076D01*
X176135606Y-49732056D01*
X176145345Y-49726919D01*
X176161604Y-49733840D01*
X176167815Y-49757693D01*
X176165006Y-49802512D01*
X176159389Y-50345708D01*
X176154630Y-50365387D01*
X176142658Y-50370865D01*
X176131987Y-50360418D01*
X176125806Y-50303698D01*
X176121150Y-50259516D01*
X176111884Y-50244958D01*
X176083918Y-50239340D01*
X175398695Y-50239340D01*
X175161174Y-50250031D01*
X175081301Y-50270115D01*
X175052617Y-50295506D01*
X175033903Y-50335496D01*
X175026713Y-50396144D01*
X175037700Y-50467219D01*
X175069034Y-50522886D01*
X175122334Y-50566992D01*
X175196828Y-50590806D01*
X175417501Y-50594958D01*
X175974131Y-50594958D01*
X176089407Y-50589086D01*
X176116158Y-50579570D01*
X176124582Y-50558109D01*
X176128736Y-50502512D01*
X176128736Y-50460502D01*
X176133155Y-50438105D01*
X176143147Y-50432536D01*
X176155216Y-50438028D01*
X176160000Y-50457693D01*
X176160000Y-50524982D01*
X176160000Y-50642463D01*
X176164640Y-50880478D01*
X176167815Y-51079291D01*
X176167815Y-51118492D01*
X176161607Y-51147358D01*
X176146933Y-51154884D01*
X176133781Y-51149245D01*
X176128736Y-51129727D01*
X176136552Y-51065247D01*
X176132081Y-51021007D01*
X176114082Y-50986845D01*
X176083715Y-50972020D01*
X175996113Y-50964497D01*
X175532906Y-50964497D01*
X175181372Y-50969113D01*
X175114518Y-50975732D01*
X175098273Y-51014551D01*
X175089239Y-51149267D01*
X175082686Y-51180442D01*
X175067379Y-51188468D01*
X175049393Y-51180449D01*
X175042344Y-51152076D01*
X175026050Y-50968239D01*
X174985926Y-50803056D01*
X174923032Y-50653698D01*
X174909476Y-50617306D01*
X174914248Y-50607326D01*
X174931824Y-50603262D01*
X175001434Y-50606071D01*
X175118426Y-50606071D01*
X175026100Y-50533028D01*
X174962085Y-50447132D01*
X174923120Y-50346016D01*
X174909476Y-50225296D01*
X174920242Y-50113458D01*
X174949379Y-50029492D01*
X174994381Y-49966831D01*
X175055975Y-49921356D01*
X175137965Y-49892027D01*
X175060655Y-49843626D01*
X175003185Y-49791444D01*
X174962355Y-49735345D01*
X174934363Y-49671504D01*
X174916121Y-49591518D01*
X174909476Y-49491713D01*
X174921313Y-49379020D01*
X174953678Y-49293230D01*
X175004567Y-49227957D01*
X175075762Y-49179587D01*
X175172499Y-49147894D01*
X175302707Y-49136095D01*
X175344839Y-49136095D01*
X175401015Y-49138904D01*
X175993670Y-49138904D01*
X176103213Y-49131943D01*
X176117604Y-49118869D01*
X176125683Y-49085659D01*
X176131301Y-48984909D01*
X176136239Y-48962827D01*
X176148154Y-48956943D01*
G37*
G36*
X175670894Y-47544214D02*
G01*
X175796272Y-47575385D01*
X175907786Y-47625826D01*
X176007592Y-47695795D01*
X176092641Y-47783654D01*
X176151582Y-47879224D01*
X176186964Y-47984311D01*
X176199078Y-48101727D01*
X176189578Y-48190609D01*
X176162069Y-48268191D01*
X176116504Y-48336978D01*
X176050823Y-48398482D01*
X176681946Y-48398482D01*
X176781475Y-48390055D01*
X176798123Y-48377116D01*
X176808098Y-48352320D01*
X176816524Y-48202477D01*
X176823457Y-48179012D01*
X176842903Y-48171702D01*
X176857288Y-48179182D01*
X176863419Y-48208094D01*
X176863419Y-48236060D01*
X176863419Y-48283688D01*
X176863419Y-48566521D01*
X176863419Y-48650540D01*
X176863419Y-48773761D01*
X176863419Y-48913834D01*
X176855862Y-48964522D01*
X176840949Y-48975383D01*
X176828872Y-48960901D01*
X176821287Y-48874511D01*
X176815208Y-48800643D01*
X176804312Y-48780844D01*
X176778615Y-48774448D01*
X176697456Y-48770952D01*
X175280115Y-48770952D01*
X175240792Y-48773761D01*
X175218321Y-48773761D01*
X175139553Y-48770952D01*
X175103604Y-48775197D01*
X175080456Y-48789961D01*
X175066402Y-48815771D01*
X175057976Y-48910903D01*
X175057976Y-48964148D01*
X175053597Y-48981544D01*
X175042344Y-48986496D01*
X175028497Y-48979420D01*
X175026713Y-48952913D01*
X175008898Y-48757514D01*
X174969302Y-48584954D01*
X174909476Y-48432065D01*
X174956249Y-48418143D01*
X175029521Y-48412526D01*
X175079225Y-48409717D01*
X174993217Y-48330706D01*
X174945502Y-48261339D01*
X174920467Y-48185746D01*
X174987634Y-48185746D01*
X174998393Y-48251716D01*
X175030753Y-48310612D01*
X175088262Y-48364898D01*
X175144993Y-48388549D01*
X175247630Y-48398482D01*
X175798276Y-48398482D01*
X175918616Y-48391895D01*
X175995430Y-48375610D01*
X176041542Y-48353663D01*
X176095085Y-48304821D01*
X176125991Y-48247947D01*
X176136552Y-48180129D01*
X176125071Y-48120245D01*
X176090260Y-48068773D01*
X176026258Y-48023098D01*
X175921360Y-47984167D01*
X175759583Y-47956007D01*
X175521549Y-47944923D01*
X175320121Y-47955631D01*
X175181164Y-47983059D01*
X175089079Y-48021557D01*
X175031190Y-48067824D01*
X174998633Y-48121575D01*
X174987634Y-48185746D01*
X174920467Y-48185746D01*
X174919314Y-48182266D01*
X174909476Y-48073761D01*
X174920702Y-47961369D01*
X174953399Y-47861121D01*
X175007627Y-47770369D01*
X175085453Y-47687369D01*
X175177418Y-47621011D01*
X175280493Y-47573207D01*
X175396749Y-47543659D01*
X175528876Y-47533374D01*
X175670894Y-47544214D01*
G37*
G36*
X176034393Y-46175756D02*
G01*
X176073660Y-46212142D01*
X176134243Y-46297855D01*
X176170792Y-46395604D01*
X176183447Y-46508897D01*
X176177118Y-46584143D01*
X176160467Y-46637902D01*
X176135697Y-46675593D01*
X176100014Y-46703578D01*
X176045031Y-46726986D01*
X175963995Y-46744103D01*
X176068011Y-46816962D01*
X176137147Y-46897401D01*
X176177535Y-46986801D01*
X176191263Y-47088607D01*
X176182362Y-47165690D01*
X176157021Y-47229584D01*
X176115425Y-47283269D01*
X176060811Y-47323902D01*
X175996185Y-47348696D01*
X175918688Y-47357397D01*
X175830297Y-47346873D01*
X175753779Y-47316325D01*
X175686204Y-47265117D01*
X175626100Y-47189837D01*
X175573640Y-47084697D01*
X175530561Y-46942003D01*
X175499933Y-46752529D01*
X175541210Y-46752529D01*
X175572821Y-46855762D01*
X175618578Y-46929819D01*
X175677713Y-46981117D01*
X175752478Y-47012782D01*
X175847735Y-47024127D01*
X175942614Y-47013328D01*
X175999760Y-46986297D01*
X176031599Y-46946312D01*
X176042763Y-46889672D01*
X176033782Y-46844917D01*
X176007339Y-46810224D01*
X175959232Y-46783304D01*
X175861223Y-46761889D01*
X175677742Y-46752529D01*
X175541210Y-46752529D01*
X175499933Y-46752529D01*
X175440949Y-46752529D01*
X175186086Y-46759227D01*
X175095345Y-46772069D01*
X175081301Y-46774877D01*
X175019300Y-46802337D01*
X174976823Y-46842862D01*
X174950402Y-46898271D01*
X174940739Y-46973691D01*
X174947229Y-47033113D01*
X174965565Y-47081827D01*
X174995327Y-47122191D01*
X175052137Y-47165635D01*
X175101695Y-47178122D01*
X175122253Y-47165514D01*
X175136133Y-47110956D01*
X175153488Y-47055088D01*
X175191958Y-47022556D01*
X175259232Y-47010205D01*
X175315987Y-47020555D01*
X175361325Y-47050872D01*
X175391428Y-47096587D01*
X175401870Y-47155774D01*
X175389156Y-47230724D01*
X175352655Y-47288764D01*
X175297252Y-47327392D01*
X175227480Y-47340544D01*
X175152104Y-47328134D01*
X175079838Y-47289774D01*
X175008028Y-47220132D01*
X174954828Y-47134855D01*
X174921412Y-47030982D01*
X174909476Y-46903715D01*
X174917868Y-46752570D01*
X174940110Y-46639687D01*
X174972691Y-46556994D01*
X175013524Y-46497784D01*
X175078311Y-46450174D01*
X175175421Y-46417821D01*
X175316995Y-46405338D01*
X175797665Y-46405338D01*
X175960697Y-46402529D01*
X176033382Y-46384191D01*
X176068058Y-46356986D01*
X176078789Y-46321318D01*
X176065083Y-46273729D01*
X176011622Y-46203715D01*
X175997578Y-46181367D01*
X176001089Y-46170834D01*
X176011622Y-46167323D01*
X176034393Y-46175756D01*
G37*
G36*
X175196584Y-45085083D02*
G01*
X175258326Y-45095277D01*
X175305394Y-45124284D01*
X175336516Y-45168619D01*
X175347159Y-45225157D01*
X175337658Y-45294144D01*
X175312921Y-45337871D01*
X175273906Y-45363931D01*
X175215390Y-45373534D01*
X175180695Y-45369445D01*
X175135523Y-45355338D01*
X175069699Y-45337142D01*
X175020554Y-45347196D01*
X174978597Y-45377808D01*
X174950343Y-45422537D01*
X174940739Y-45477093D01*
X174952447Y-45544749D01*
X174987168Y-45601540D01*
X175049076Y-45650549D01*
X175147807Y-45691415D01*
X175297076Y-45720570D01*
X175513733Y-45731960D01*
X175683534Y-45723067D01*
X175813178Y-45699291D01*
X175910576Y-45664174D01*
X175982435Y-45619975D01*
X176043113Y-45556172D01*
X176077943Y-45486150D01*
X176089658Y-45407117D01*
X176080735Y-45347027D01*
X176052318Y-45283583D01*
X175999913Y-45214587D01*
X175916734Y-45138328D01*
X175898638Y-45120705D01*
X175894019Y-45107554D01*
X175897709Y-45099519D01*
X175910994Y-45096318D01*
X175944086Y-45104105D01*
X175991783Y-45133475D01*
X176060715Y-45197069D01*
X176121550Y-45274044D01*
X176164339Y-45357039D01*
X176190218Y-45447421D01*
X176199078Y-45547069D01*
X176187538Y-45669432D01*
X176153777Y-45780335D01*
X176097715Y-45882258D01*
X176017484Y-45976936D01*
X175921270Y-46055105D01*
X175817054Y-46110070D01*
X175703045Y-46143338D01*
X175576748Y-46154745D01*
X175439210Y-46142595D01*
X175316040Y-46107302D01*
X175204452Y-46049276D01*
X175102428Y-45967166D01*
X175017554Y-45867234D01*
X174957954Y-45758363D01*
X174921869Y-45638577D01*
X174909476Y-45505059D01*
X174919399Y-45390067D01*
X174947645Y-45291733D01*
X174993129Y-45206960D01*
X175055916Y-45136740D01*
X175122798Y-45097859D01*
X175196584Y-45085083D01*
G37*
G36*
X175980603Y-44113974D02*
G01*
X176011275Y-44124310D01*
X176061081Y-44167219D01*
X176116183Y-44239204D01*
X176156633Y-44324350D01*
X176182186Y-44425232D01*
X176191263Y-44545184D01*
X176182599Y-44657787D01*
X176159762Y-44739157D01*
X176125969Y-44796834D01*
X176082086Y-44836322D01*
X176039855Y-44859024D01*
X176003684Y-44868562D01*
X175815983Y-44872714D01*
X175681650Y-44872714D01*
X175569542Y-44872714D01*
X175510802Y-44875523D01*
X175258743Y-44875523D01*
X175057121Y-44878332D01*
X175012872Y-44883030D01*
X174998381Y-44892376D01*
X174992899Y-44913149D01*
X174989954Y-44976395D01*
X174981825Y-45047070D01*
X174967484Y-45060415D01*
X174954629Y-45054127D01*
X174945136Y-45029640D01*
X174931839Y-44930591D01*
X174898569Y-44837213D01*
X174844156Y-44747693D01*
X174765848Y-44660798D01*
X174659494Y-44575959D01*
X174627131Y-44550428D01*
X174620293Y-44536758D01*
X174627661Y-44525351D01*
X174659860Y-44519905D01*
X174877703Y-44513613D01*
X174925963Y-44500366D01*
X174940833Y-44465770D01*
X174948555Y-44363101D01*
X174944727Y-44254216D01*
X174936099Y-44197871D01*
X174932923Y-44186758D01*
X174936734Y-44178771D01*
X174950753Y-44175523D01*
X174982544Y-44185037D01*
X174992519Y-44211915D01*
X174995450Y-44466782D01*
X174995450Y-44505983D01*
X175053946Y-44505983D01*
X175727827Y-44498874D01*
X175928213Y-44486322D01*
X176003894Y-44464850D01*
X176051953Y-44431889D01*
X176079833Y-44387989D01*
X176089658Y-44329518D01*
X176082617Y-44292627D01*
X176057484Y-44243768D01*
X176005882Y-44178332D01*
X175966803Y-44122400D01*
X175980603Y-44113974D01*
G37*
D11*
%TO.C,SW5*%
X133880000Y-98080000D03*
D12*
X138960000Y-98080000D03*
D11*
X144040000Y-98080000D03*
D13*
X141500000Y-93000000D03*
X135150000Y-95540000D03*
%TD*%
D11*
%TO.C,SW3*%
X162840000Y-78500000D03*
D12*
X167920000Y-78500000D03*
D11*
X173000000Y-78500000D03*
D13*
X170460000Y-73420000D03*
X164110000Y-75960000D03*
%TD*%
D11*
%TO.C,SW6*%
X153340000Y-98000000D03*
D12*
X158420000Y-98000000D03*
D11*
X163500000Y-98000000D03*
D13*
X160960000Y-92920000D03*
X154610000Y-95460000D03*
%TD*%
D11*
%TO.C,SW2*%
X143340000Y-78500000D03*
D12*
X148420000Y-78500000D03*
D11*
X153500000Y-78500000D03*
D13*
X150960000Y-73420000D03*
X144610000Y-75960000D03*
%TD*%
D11*
%TO.C,SW1*%
X123840000Y-78500000D03*
D12*
X128920000Y-78500000D03*
D11*
X134000000Y-78500000D03*
D13*
X131460000Y-73420000D03*
X125110000Y-75960000D03*
%TD*%
D14*
%TO.C,U1*%
X139545000Y-48148500D03*
D15*
X140380000Y-48148500D03*
D14*
X139545000Y-50688500D03*
D15*
X140380000Y-50688500D03*
D14*
X139545000Y-53228500D03*
D15*
X140380000Y-53228500D03*
D14*
X139545000Y-55768500D03*
D15*
X140380000Y-55768500D03*
D14*
X139545000Y-58308500D03*
D15*
X140380000Y-58308500D03*
D14*
X139545000Y-60848500D03*
D15*
X140380000Y-60848500D03*
D14*
X139545000Y-63388500D03*
D15*
X140380000Y-63388500D03*
X155620000Y-63388500D03*
D16*
X156455000Y-63388500D03*
D15*
X155620000Y-60848500D03*
D16*
X156455000Y-60848500D03*
D15*
X155620000Y-58308500D03*
D16*
X156455000Y-58308500D03*
D15*
X155620000Y-55768500D03*
D16*
X156455000Y-55768500D03*
D15*
X155620000Y-53228500D03*
D16*
X156455000Y-53228500D03*
D15*
X155620000Y-50688500D03*
D16*
X156455000Y-50688500D03*
D15*
X155620000Y-48148500D03*
D16*
X156455000Y-48148500D03*
%TD*%
M02*
