%TF.GenerationSoftware,KiCad,Pcbnew,9.0.3*%
%TF.CreationDate,2025-07-20T09:20:19-07:00*%
%TF.ProjectId,genshin_console,67656e73-6869-46e5-9f63-6f6e736f6c65,rev?*%
%TF.SameCoordinates,Original*%
%TF.FileFunction,Copper,L1,Top*%
%TF.FilePolarity,Positive*%
%FSLAX46Y46*%
G04 Gerber Fmt 4.6, Leading zero omitted, Abs format (unit mm)*
G04 Created by KiCad (PCBNEW 9.0.3) date 2025-07-20 09:20:19*
%MOMM*%
%LPD*%
G01*
G04 APERTURE LIST*
G04 Aperture macros list*
%AMRoundRect*
0 Rectangle with rounded corners*
0 $1 Rounding radius*
0 $2 $3 $4 $5 $6 $7 $8 $9 X,Y pos of 4 corners*
0 Add a 4 corners polygon primitive as box body*
4,1,4,$2,$3,$4,$5,$6,$7,$8,$9,$2,$3,0*
0 Add four circle primitives for the rounded corners*
1,1,$1+$1,$2,$3*
1,1,$1+$1,$4,$5*
1,1,$1+$1,$6,$7*
1,1,$1+$1,$8,$9*
0 Add four rect primitives between the rounded corners*
20,1,$1+$1,$2,$3,$4,$5,0*
20,1,$1+$1,$4,$5,$6,$7,0*
20,1,$1+$1,$6,$7,$8,$9,0*
20,1,$1+$1,$8,$9,$2,$3,0*%
G04 Aperture macros list end*
%TA.AperFunction,ComponentPad*%
%ADD10C,2.200000*%
%TD*%
%TA.AperFunction,SMDPad,CuDef*%
%ADD11RoundRect,0.152400X1.063600X0.609600X-1.063600X0.609600X-1.063600X-0.609600X1.063600X-0.609600X0*%
%TD*%
%TA.AperFunction,ComponentPad*%
%ADD12C,1.524000*%
%TD*%
%TA.AperFunction,SMDPad,CuDef*%
%ADD13RoundRect,0.152400X-1.063600X-0.609600X1.063600X-0.609600X1.063600X0.609600X-1.063600X0.609600X0*%
%TD*%
%TA.AperFunction,Conductor*%
%ADD14C,0.200000*%
%TD*%
G04 APERTURE END LIST*
D10*
%TO.P,SW5,1,1*%
%TO.N,elemental_skill*%
X141500000Y-93000000D03*
%TO.P,SW5,2,2*%
%TO.N,GND*%
X135150000Y-95540000D03*
%TD*%
%TO.P,SW3,1,1*%
%TO.N,sprint*%
X170460000Y-73420000D03*
%TO.P,SW3,2,2*%
%TO.N,GND*%
X164110000Y-75960000D03*
%TD*%
%TO.P,SW6,1,1*%
%TO.N,jump*%
X160960000Y-92920000D03*
%TO.P,SW6,2,2*%
%TO.N,GND*%
X154610000Y-95460000D03*
%TD*%
%TO.P,SW2,1,1*%
%TO.N,elemental_burst*%
X150960000Y-73420000D03*
%TO.P,SW2,2,2*%
%TO.N,GND*%
X144610000Y-75960000D03*
%TD*%
%TO.P,SW1,1,1*%
%TO.N,normal_attack*%
X131460000Y-73420000D03*
%TO.P,SW1,2,2*%
%TO.N,GND*%
X125110000Y-75960000D03*
%TD*%
D11*
%TO.P,U1,1,GPIO26/ADC0/A0*%
%TO.N,normal_attack*%
X139545000Y-48148500D03*
D12*
X140380000Y-48148500D03*
D11*
%TO.P,U1,2,GPIO27/ADC1/A1*%
%TO.N,elemental_skill*%
X139545000Y-50688500D03*
D12*
X140380000Y-50688500D03*
D11*
%TO.P,U1,3,GPIO28/ADC2/A2*%
%TO.N,elemental_burst*%
X139545000Y-53228500D03*
D12*
X140380000Y-53228500D03*
D11*
%TO.P,U1,4,GPIO29/ADC3/A3*%
%TO.N,jump*%
X139545000Y-55768500D03*
D12*
X140380000Y-55768500D03*
D11*
%TO.P,U1,5,GPIO6/SDA*%
%TO.N,sprint*%
X139545000Y-58308500D03*
D12*
X140380000Y-58308500D03*
D11*
%TO.P,U1,6,GPIO7/SCL*%
%TO.N,unconnected-(U1-GPIO7{slash}SCL-Pad6)*%
X139545000Y-60848500D03*
D12*
X140380000Y-60848500D03*
D11*
%TO.P,U1,7,GPIO0/TX*%
%TO.N,unconnected-(U1-GPIO0{slash}TX-Pad7)*%
X139545000Y-63388500D03*
D12*
X140380000Y-63388500D03*
%TO.P,U1,8,GPIO1/RX*%
%TO.N,unconnected-(U1-GPIO1{slash}RX-Pad8)*%
X155620000Y-63388500D03*
D13*
X156455000Y-63388500D03*
D12*
%TO.P,U1,9,GPIO2/SCK*%
%TO.N,unconnected-(U1-GPIO2{slash}SCK-Pad9)*%
X155620000Y-60848500D03*
D13*
X156455000Y-60848500D03*
D12*
%TO.P,U1,10,GPIO4/MISO*%
%TO.N,unconnected-(U1-GPIO4{slash}MISO-Pad10)*%
X155620000Y-58308500D03*
D13*
X156455000Y-58308500D03*
D12*
%TO.P,U1,11,GPIO3/MOSI*%
%TO.N,unconnected-(U1-GPIO3{slash}MOSI-Pad11)*%
X155620000Y-55768500D03*
D13*
X156455000Y-55768500D03*
D12*
%TO.P,U1,12,3V3*%
%TO.N,unconnected-(U1-3V3-Pad12)*%
X155620000Y-53228500D03*
D13*
X156455000Y-53228500D03*
D12*
%TO.P,U1,13,GND*%
%TO.N,GND*%
X155620000Y-50688500D03*
D13*
X156455000Y-50688500D03*
D12*
%TO.P,U1,14,VBUS*%
%TO.N,unconnected-(U1-VBUS-Pad14)*%
X155620000Y-48148500D03*
D13*
X156455000Y-48148500D03*
%TD*%
D14*
%TO.N,normal_attack*%
X131460000Y-73420000D02*
X131460000Y-50540000D01*
X133851500Y-48148500D02*
X139545000Y-48148500D01*
X131460000Y-50540000D02*
X133851500Y-48148500D01*
%TO.N,GND*%
X156697630Y-50688500D02*
X155620000Y-50688500D01*
X171861000Y-74000314D02*
X171861000Y-65851870D01*
X164110000Y-75960000D02*
X144610000Y-75960000D01*
X135150000Y-95540000D02*
X154530000Y-95540000D01*
X154530000Y-95540000D02*
X154610000Y-95460000D01*
X144610000Y-75960000D02*
X125110000Y-75960000D01*
X164110000Y-85960000D02*
X164110000Y-75960000D01*
X154610000Y-95460000D02*
X164110000Y-85960000D01*
X164110000Y-75960000D02*
X169901314Y-75960000D01*
X169901314Y-75960000D02*
X171861000Y-74000314D01*
X171861000Y-65851870D02*
X156697630Y-50688500D01*
%TO.N,elemental_burst*%
X150960000Y-73420000D02*
X150960000Y-63808500D01*
X150960000Y-63808500D02*
X140380000Y-53228500D01*
%TO.N,sprint*%
X151540314Y-74821000D02*
X150379686Y-74821000D01*
X141443000Y-59371500D02*
X140380000Y-58308500D01*
X170460000Y-73420000D02*
X152941314Y-73420000D01*
X141443000Y-65884314D02*
X141443000Y-59371500D01*
X152941314Y-73420000D02*
X151540314Y-74821000D01*
X150379686Y-74821000D02*
X141443000Y-65884314D01*
%TO.N,elemental_skill*%
X140095184Y-93000000D02*
X123709000Y-76613816D01*
X138028000Y-68833314D02*
X138028000Y-51962870D01*
X124529686Y-74559000D02*
X125690314Y-74559000D01*
X123709000Y-75379686D02*
X124529686Y-74559000D01*
X132040314Y-74821000D02*
X138028000Y-68833314D01*
X141500000Y-93000000D02*
X140095184Y-93000000D01*
X125690314Y-74559000D02*
X125952314Y-74821000D01*
X138028000Y-51962870D02*
X139302370Y-50688500D01*
X139302370Y-50688500D02*
X140380000Y-50688500D01*
X123709000Y-76613816D02*
X123709000Y-75379686D01*
X125952314Y-74821000D02*
X132040314Y-74821000D01*
%TD*%
M02*
